<svg height="480pt" viewBox="-16 0 480 480" width="480pt" xmlns="http://www.w3.org/2000/svg" xmlns:xlink="http://www.w3.org/1999/xlink"><linearGradient id="a"><stop offset="0" stop-color="#e93e3a"/><stop offset=".35" stop-color="#ed683c"/><stop offset=".7" stop-color="#f3903f"/><stop offset="1" stop-color="#fdc70c"/></linearGradient><linearGradient id="b" gradientUnits="userSpaceOnUse" x1="221.48" x2="226.368" xlink:href="#a" y1="484.16" y2="-4.624"/><linearGradient id="c" gradientUnits="userSpaceOnUse" x1="398.584" x2="403.472" xlink:href="#a" y1="485.936" y2="-2.856"/><linearGradient id="d" gradientUnits="userSpaceOnUse" x1="107.488" x2="112.376" xlink:href="#a" y1="483.024" y2="-5.768"/><linearGradient id="e" gradientUnits="userSpaceOnUse" x1="131.488" x2="136.376" xlink:href="#a" y1="483.264" y2="-5.528"/><linearGradient id="f" gradientUnits="userSpaceOnUse" x1="155.488" x2="160.376" xlink:href="#a" y1="483.504" y2="-5.288"/><linearGradient id="g" gradientUnits="userSpaceOnUse" x1="220.76" x2="225.648" xlink:href="#a" y1="484.152" y2="-4.632"/><linearGradient id="h" gradientUnits="userSpaceOnUse" x1="221.4" x2="226.288" xlink:href="#a" y1="484.16" y2="-4.632"/><linearGradient id="i" gradientUnits="userSpaceOnUse" x1="221.56" x2="226.448" xlink:href="#a" y1="484.16" y2="-4.624"/><path d="m408 80h-40v-56c0-13.253906-10.746094-24-24-24h-240c-13.253906 0-24 10.746094-24 24v56h-40c-22.082031.027344-39.9726562 17.917969-40 40v224c.0273438 22.082031 17.917969 39.972656 40 40h112v48h-16c-4.417969 0-8 3.582031-8 8v24h-16v16h224v-16h-16v-24c0-4.417969-3.582031-8-8-8h-16v-48h112c22.082031-.027344 39.972656-17.917969 40-40v-224c-.027344-22.082031-17.917969-39.972656-40-40zm-312-16h256v200c0 4.417969-3.582031 8-8 8h-240c-4.417969 0-8-3.582031-8-8zm8-48h240c4.417969 0 8 3.582031 8 8v24h-256v-24c0-4.417969 3.582031-8 8-8zm-64 80h40v168c0 13.253906 10.746094 24 24 24h240c13.253906 0 24-10.746094 24-24v-168h40c13.253906 0 24 10.746094 24 24v184h-416v-184c0-13.253906 10.746094-24 24-24zm264 368h-160v-16h160zm-24-32h-112v-48h112zm128-64h-368c-13.253906 0-24-10.746094-24-24v-24h416v24c0 13.253906-10.746094 24-24 24zm0 0" fill="url(#b)"/><path d="m384 336h32v16h-32zm0 0" fill="url(#c)"/><path d="m120 32c0 4.417969-3.582031 8-8 8s-8-3.582031-8-8 3.582031-8 8-8 8 3.582031 8 8zm0 0" fill="url(#d)"/><path d="m144 32c0 4.417969-3.582031 8-8 8s-8-3.582031-8-8 3.582031-8 8-8 8 3.582031 8 8zm0 0" fill="url(#e)"/><path d="m168 32c0 4.417969-3.582031 8-8 8s-8-3.582031-8-8 3.582031-8 8-8 8 3.582031 8 8zm0 0" fill="url(#f)"/><path d="m224 208c3.742188 0 6.988281-2.59375 7.808594-6.246094 3.054687-13.609375 8.191406-37.136718 8.191406-41.753906 0-8.835938-7.164062-16-16-16s-16 7.164062-16 16c0 4.617188 5.136719 28.144531 8.191406 41.753906.820313 3.652344 4.066406 6.246094 7.808594 6.246094zm0 0" fill="url(#g)"/><path d="m232 224c0 4.417969-3.582031 8-8 8s-8-3.582031-8-8 3.582031-8 8-8 8 3.582031 8 8zm0 0" fill="url(#h)"/><path d="m141.785156 256h164.429688c5.703125 0 10.972656-3.039062 13.835937-7.96875 2.859375-4.933594 2.882813-11.015625.054688-15.96875l-82.21875-143.878906c-2.847657-4.980469-8.148438-8.054688-13.886719-8.054688s-11.039062 3.074219-13.886719 8.054688l-82.21875 143.878906c-2.828125 4.953125-2.804687 11.035156.054688 15.96875 2.863281 4.929688 8.132812 7.96875 13.835937 7.96875zm82.214844-159.871094 82.257812 143.871094h-164.472656zm0 0" fill="url(#i)"/></svg>